<svg width="25" height="24" viewBox="0 0 25 24" fill="none" xmlns="http://www.w3.org/2000/svg">
<rect width="24" height="24" transform="translate(0.5)" fill="white"/>
<path d="M22.4916 18.5523L18.7416 18.3007L19.5499 18.8551V19.8175L13.8746 19.3368L15.5644 20.532V21.6044L6.16309 20.4493L6.6879 19.6807C7.40118 19.9926 8.17319 20.1635 8.97936 20.1635C9.7156 20.1635 10.4246 20.0199 11.085 19.7577L14.3637 18.8546L15.0235 18.6724L17.1308 18.0914H17.1319L17.6562 17.9472L19.4329 17.458L19.7826 17.3619L21.0234 17.0201L21.0261 17.019C21.0725 17.0019 21.1179 16.9848 21.1628 16.9667L22.4927 17.8361V18.5523H22.4916Z" fill="#676966"/>
<path d="M7.40562 7.26607C7.38373 8.64607 7.34902 15.066 7.33301 18.3969L10.3826 18.6244V6.99316L7.40562 7.26607ZM7.80924 14.3936C7.80924 14.4165 7.79055 14.4347 7.76813 14.4347C7.74517 14.4347 7.72702 14.416 7.72702 14.3936V14.0294L7.58447 13.8868C7.577 13.8793 7.57219 13.8686 7.57219 13.8574V12.95C7.57219 12.9377 7.57753 12.926 7.58714 12.9185L7.69605 12.8277V12.5586C7.69605 12.5356 7.71474 12.5174 7.73716 12.5174C7.76012 12.5174 7.77827 12.5361 7.77827 12.5586V12.8475C7.77827 12.8598 7.77293 12.8715 7.76332 12.879L7.65441 12.9698V13.8408L7.79696 13.9834C7.80443 13.9909 7.80924 14.0016 7.80924 14.0128V14.3936Z" fill="#676966"/>
<path d="M23.9974 12.401L15.4071 12.2851L15.2421 12.2835L15.0755 12.2809L14.4424 12.2723C14.0953 10.6835 13.3885 10.3438 13.0815 10.2717C12.7809 8.59107 12.042 7.06046 10.9715 5.88714C10.8824 5.78941 10.79 5.69274 10.6955 5.60089C10.632 5.53627 10.5674 5.47432 10.5012 5.4145C10.4755 5.39047 10.4488 5.36644 10.4222 5.34401C9.95393 4.92477 9.4494 4.58084 8.92139 4.31702L21.2916 8.33899C21.2922 8.33899 23.7577 9.33821 23.9974 12.401Z" fill="#B3B4B3"/>
<path d="M24.0001 12.4362H23.9927L23.9975 12.4026L24.0001 12.4362Z" fill="#B3B4B3"/>
<path d="M17.0827 12.6386H17.0821L15.4351 12.6162H15.4228H15.4212C15.5034 15.2753 14.4074 17.6582 12.6626 18.9747L14.8046 18.3845C16.9855 16.0683 17.0939 13.3361 17.0827 12.6386Z" fill="#676966"/>
<path d="M23.5107 12.7246L21.8984 12.7032C21.8925 13.3959 21.7142 15.185 20.1899 16.9009L21.5909 16.5148C23.2678 15.1556 23.491 13.3986 23.5107 12.7246Z" fill="#676966"/>
<path d="M23.949 12.7305L23.6756 12.7273C23.6564 13.3933 23.4471 15.0505 21.9629 16.4123L21.9645 16.4118H21.9656L22.2095 16.344C23.6713 15.1856 23.9111 13.3789 23.9495 12.7268L23.949 12.7305Z" fill="#676966"/>
<path d="M10.5025 19.9547L10.4673 19.9734C10.5815 19.9451 10.8746 19.881 10.5025 19.9547Z" fill="#676966"/>
<path d="M19.5483 12.6712L17.4138 12.6429C17.4212 13.0146 17.3977 13.8659 17.1084 14.9276C16.8569 15.8505 16.362 17.0601 15.3882 18.2238L17.6033 17.6134C19.6449 15.5327 19.6241 13.3869 19.5483 12.6712Z" fill="#676966"/>
<path d="M9.76059 5.20994C9.52942 5.17789 9.29664 5.16027 9.06227 5.16027C8.89836 5.16027 8.73125 5.16881 8.56842 5.1843C6.93257 5.34345 5.47292 6.26897 4.45746 7.79103C3.44947 9.30241 2.9994 11.2234 3.19107 13.1999C3.37312 15.0723 4.12057 16.8048 5.29673 18.078C5.77029 18.5902 6.29511 19.0094 6.85409 19.3293C6.6667 19.3138 6.48998 19.2513 6.31006 19.1531C5.22679 18.556 4.35228 17.6219 3.75325 16.5447C3.09443 15.3586 2.76609 14.0026 2.76609 12.6483C2.76609 12.5788 2.76716 12.535 2.76876 12.4651L2.61767 12.4667V12.4651H1.00425C1.12651 11.398 0.302182 10.8309 0 10.661C0.337419 7.06578 2.75274 4.28068 5.7767 4.02059C7.21927 3.89616 8.60152 4.34103 9.75793 5.20833C9.75846 5.20887 9.75953 5.20994 9.76059 5.20994Z" fill="#676966"/>
<path d="M19.8906 16.9832C21.5473 15.2459 21.7294 13.3895 21.7336 12.7011L19.7999 12.6744C19.8378 13.0333 19.8581 13.6785 19.6701 14.4833C19.4811 15.294 19.0466 16.3813 18.0615 17.4868L19.8896 16.9827H19.8906V16.9832Z" fill="#676966"/>
<path d="M7.24801 19.295C7.21118 19.3047 7.14604 19.3997 7.10119 19.4611C7.01791 19.4189 6.93516 19.3752 6.854 19.3287C6.87269 19.3303 6.89191 19.3314 6.9106 19.3319C7.01898 19.3351 7.13163 19.3239 7.24801 19.295Z" fill="white"/>
<path d="M10.7397 19.009L6.97363 18.7281V18.6896C6.97363 18.6896 6.98751 15.7614 7.0046 12.8326C7.01314 11.3682 7.02275 9.90438 7.03183 8.80582C7.0361 8.25682 7.0409 7.79913 7.04464 7.4787C7.05158 6.93449 7.05158 6.93449 7.0975 6.93449L10.7397 6.60071V19.009ZM7.05692 18.6511L10.6575 18.9198V6.6915L7.13594 7.01407C7.11405 7.55346 7.07507 14.7718 7.05692 18.6511Z" fill="#B3B4B3"/>
<path d="M15.0919 12.6108L14.1726 12.5986L14.1459 12.4672C13.7801 10.6172 12.9483 10.5825 12.9398 10.5825L12.8026 10.5798L12.777 10.4442C12.4609 8.53547 11.5949 6.90446 10.4086 5.76158C10.3718 5.72526 10.3339 5.68948 10.2954 5.65477C9.89502 5.54796 9.48286 5.48975 9.06269 5.48975C8.90893 5.48975 8.75356 5.49722 8.60034 5.51218C7.06594 5.66118 5.69223 6.53543 4.73283 7.97311C3.76649 9.42147 3.33564 11.2661 3.52037 13.1668C3.87754 16.8432 6.51069 19.7229 9.51543 19.7229C9.66919 19.7229 9.82455 19.7154 9.97778 19.7004C10.3109 19.6679 10.6329 19.5995 10.9441 19.5018L10.9302 19.4516L11.4673 19.3036C13.6985 18.3076 15.1912 15.6475 15.0919 12.6108ZM10.5474 18.8022L7.16737 18.5501L7.16791 18.4732C7.18392 15.1022 7.2197 8.40516 7.24212 7.18965L7.24372 7.11595L10.548 6.81314V18.8022H10.5474Z" fill="#676966"/>
<path d="M18.8282 5.34033H18.21V7.54705H18.8282V5.34033Z" fill="#B3B4B3"/>
<path d="M18.0933 5.07908H18.9865L18.5332 4.52954L18.0933 5.07908Z" fill="#676966"/>
<path d="M8.46262 10.2098L7.92285 9.58441V8.69948L8.46262 8.0741H9.22661L9.76638 8.69948V9.58441L9.22661 10.2098H8.46262Z" fill="#B3B4B3"/>
<path d="M10.928 19.4218L10.9504 21.3924L8.68994 22.3473V21.4667L9.42831 21.1681L9.43579 19.974L10.928 19.4218Z" fill="#676966"/>
<path d="M4.83029 20.972L4.81641 21.795L7.03366 21.1456L6.94396 19.1306L5.71174 19.458L5.75125 20.697L4.83029 20.972Z" fill="#676966"/>
<path d="M9.45087 19.9702L11.0178 19.4218L6.98856 19.1083L5.68213 19.4736L9.45087 19.9702Z" fill="#B3B4B3"/>
<path d="M8.70142 21.504L4.80615 20.9668L5.65717 20.7094L9.49585 21.1457L8.70142 21.504Z" fill="#B3B4B3"/>
<path d="M10.7485 18.9949L6.98242 18.714V18.6756C6.98242 18.6756 6.9963 15.7473 7.01339 12.8186C7.02193 11.3542 7.03154 9.89034 7.04062 8.79179C7.04489 8.24278 7.04969 7.78509 7.05343 7.46466C7.06037 6.92045 7.06037 6.92045 7.10628 6.92045L10.7485 6.58667V18.9949ZM7.06518 18.6371L10.6657 18.9057V6.67746L7.14419 7.00003C7.12284 7.53943 7.08333 14.7577 7.06518 18.6371Z" fill="#B3B4B3"/>
</svg>
