<svg width="24" height="24" viewBox="0 0 24 24" fill="none" xmlns="http://www.w3.org/2000/svg">
<rect width="24" height="24" fill="white"/>
<g clip-path="url(#clip0_563_4682)">
<path d="M2.80925 16.3528L2.55988 11.1625C1.63054 10.8832 0.964058 10.5971 0.532715 10.3837L0.97604 16.2989C1.1962 16.4696 1.49275 16.6771 1.87617 16.8958C2.15549 17.0538 2.482 17.22 2.85792 17.3848L2.80925 16.3528Z" fill="#676966"/>
<path d="M2.89314 18.1H1.11086L1.03223 17.0658C1.1513 17.1467 1.28309 17.2305 1.42613 17.3167C1.81778 17.5518 2.3008 17.7997 2.89015 18.0408L2.89314 18.1Z" fill="#676966"/>
<path d="M6.45312 18.1H4.97787C4.26945 17.9195 3.65988 17.7129 3.13792 17.5024L3.07801 16.2339L2.83838 11.2465C3.7445 11.5041 4.87827 11.7512 6.25842 11.9227L6.36701 15.3405L6.45312 18.1Z" fill="#676966"/>
<path d="M10.9884 18.1H6.72667L6.63755 15.2947L6.53271 11.9556C7.64852 12.0844 8.92233 12.1637 10.3586 12.1637C10.5548 12.1637 10.7563 12.1623 10.96 12.1593L10.9742 14.9607L10.9884 18.1Z" fill="#676966"/>
<path d="M19.3592 11.2075L19.0626 16.177L18.9877 17.4275C18.3609 17.6687 17.6286 17.9001 16.7786 18.1H15.7422L15.8088 15.321L15.8935 11.8291C17.2886 11.6546 18.4373 11.4307 19.3592 11.2075Z" fill="#676966"/>
<path d="M18.9487 18.0737L18.9472 18.0999H18.8716C18.8985 18.0917 18.924 18.0835 18.9487 18.0737Z" fill="#676966"/>
<path d="M21.2491 16.9939L21.166 18.1H19.2212L19.2287 17.9697C19.2362 17.9659 19.2429 17.9637 19.2504 17.9614C19.8592 17.7263 20.3714 17.4844 20.7968 17.2538C20.96 17.1654 21.1106 17.0793 21.2491 16.9939Z" fill="#676966"/>
<path d="M21.7388 10.4653L21.3037 16.263C21.0446 16.4375 20.7196 16.6329 20.3204 16.8381C20.0194 16.9939 19.6757 17.1526 19.2893 17.3107C19.2818 17.3129 19.2758 17.3152 19.269 17.3189L19.3305 16.29L19.6375 11.1386V11.1371C20.6058 10.8884 21.2985 10.6436 21.7388 10.4653Z" fill="#676966"/>
<path d="M22 6.98389L21.994 7.05952C21.9955 7.06102 21.9955 7.06177 21.994 7.06327L21.7881 9.81682C21.4384 9.96734 20.7442 10.2384 19.6733 10.5215L19.7961 8.47187C19.7804 8.47636 19.7647 8.48161 19.749 8.4861C19.6853 8.50557 19.6187 8.52429 19.5528 8.54301C19.5408 8.54676 19.5288 8.549 19.5168 8.55275L19.3948 10.5941C18.4834 10.8255 17.3257 11.0592 15.9073 11.2412L15.9567 9.19527C15.9448 9.19677 15.9328 9.19752 15.9208 9.19901C15.8571 9.2065 15.7927 9.21324 15.7283 9.22073C15.7126 9.22223 15.6984 9.22447 15.6827 9.22522L15.6332 11.2749C14.3692 11.4306 12.9036 11.5422 11.2299 11.5774L11.2195 9.45063H10.9469L10.9574 11.5826C9.25969 11.6103 7.78219 11.5212 6.51287 11.367L6.44547 9.21025C6.35261 9.19976 6.26125 9.19003 6.17064 9.17879L6.23954 11.3325C4.83692 11.1505 3.6994 10.8892 2.80751 10.6248L2.71091 8.62314L2.70717 8.53852L2.68695 8.11691L2.67946 7.96489L2.64127 7.17335C2.62554 7.1696 2.61131 7.16586 2.59559 7.16137C2.53043 7.14339 2.46453 7.11643 2.40013 7.08274C2.38815 7.07525 2.37467 7.06926 2.36269 7.06102L2.40088 7.87802L2.40912 8.04203L2.42934 8.45764L2.43308 8.55275L2.52969 10.5387C1.47529 10.207 0.805062 9.87973 0.480057 9.70225L0.337025 7.75971C0.337025 7.75971 0.337025 7.75521 0.335527 7.74398C0.334029 7.73424 0.333281 7.71852 0.331783 7.6968C0.328038 7.65337 0.323545 7.58597 0.316057 7.4991C0.31381 7.46091 0.310066 7.41748 0.306322 7.3703C0.304824 7.35233 0.304075 7.33286 0.301828 7.31264L0.2876 7.12018C0.286102 7.10595 0.285353 7.09022 0.283856 7.0745V7.06701C0.283856 7.06476 0.283856 7.06252 0.282358 7.05952C0.28086 7.03556 0.278614 7.0086 0.276367 6.98389H22Z" fill="#676966"/>
<path d="M20.6543 5.82912L20.6798 1.51793C20.6835 0.905366 20.232 0.38416 19.6246 0.301785L17.7076 0.0404335C16.8898 -0.0711466 16.0578 0.0471732 15.3037 0.382662L19.2128 1.05514L19.9496 5.57226L20.6543 5.82912Z" fill="#B3B4B3"/>
<path d="M18.0875 0.262885L16.1345 0.166282C16.0476 0.161789 15.963 0.164036 15.8813 0.173771C15.8798 0.173771 15.8798 0.173771 15.8791 0.173771C15.1669 0.25315 14.6427 0.842502 14.6225 1.56665L14.5371 4.63922L14.5356 4.67517L19.9499 5.57305V5.54085L19.9716 2.11856C19.9769 1.11209 19.0925 0.31231 18.0875 0.262885ZM18.1189 4.10678C17.4622 4.10678 16.9297 3.40285 16.9297 2.53418C16.9297 1.89914 17.2143 1.35173 17.6217 1.10385C17.6232 1.10385 17.6232 1.10385 17.6232 1.10385C17.6374 1.10835 17.6509 1.11434 17.6651 1.11958C18.1085 1.3053 18.5024 1.8295 18.6461 2.49673C18.7832 3.13551 18.6544 3.73685 18.3511 4.07758C18.2747 4.09705 18.1983 4.10678 18.1189 4.10678Z" fill="#676966"/>
<path d="M2.85871 17.3856C2.48278 17.2208 2.15628 17.0538 1.87695 16.8966C2.13157 16.7049 2.44459 16.5229 2.80928 16.3529L2.85871 17.3856Z" fill="#676966"/>
<path d="M2.98123 19.9272C1.80402 19.4127 1.11133 18.7822 1.11133 18.1007C1.11133 17.8296 1.22066 17.5683 1.42735 17.3174C1.819 17.5525 2.30201 17.8004 2.89137 18.0415L2.89361 18.1007L2.98123 19.9272Z" fill="#676966"/>
<path d="M6.46222 18.4123C5.92454 18.3217 5.43104 18.2161 4.97798 18.1C4.26956 17.9195 3.65999 17.7129 3.13803 17.5024L3.07812 16.2339C3.94905 15.8662 5.07159 15.5606 6.36637 15.3397L6.45324 18.1008L6.46222 18.4123Z" fill="#676966"/>
<path d="M6.5408 20.8924C5.261 20.6865 4.1452 20.3937 3.26079 20.0432L3.16943 18.1516C4.04635 18.4834 5.13819 18.7911 6.48239 19.0083L6.5408 20.8924Z" fill="#676966"/>
<path d="M10.9921 18.7409C10.8992 18.7432 10.8079 18.7432 10.7173 18.7432C9.19632 18.7432 7.88207 18.6346 6.74905 18.4586C6.7453 18.4586 6.74156 18.4571 6.73781 18.4564L6.72583 18.0999L6.63672 15.2947C6.64046 15.2947 6.64496 15.2932 6.6487 15.2932C7.95396 15.0873 9.42023 14.9689 10.9734 14.9607L10.9876 18.0999L10.9921 18.7409Z" fill="#676966"/>
<path d="M11.0039 21.2407C9.50991 21.2347 8.09531 21.1261 6.82749 20.9359H6.82599C6.82225 20.9359 6.8185 20.9344 6.81626 20.9344L6.75635 19.0496C6.76009 19.0496 6.76384 19.0511 6.76683 19.0511C7.9021 19.2188 9.20961 19.3206 10.7088 19.3206C10.8032 19.3206 10.8983 19.3206 10.9941 19.3184L11.0039 21.2407Z" fill="#676966"/>
<path d="M11.2314 12.1547L11.2457 14.9615L11.2599 18.1007L11.2636 18.7395H11.2696C12.8677 18.7133 14.2583 18.5732 15.461 18.3673L15.4685 18.1007L15.5359 15.2797L15.6175 11.8619C14.3542 12.011 12.8962 12.121 11.2314 12.1547Z" fill="#676966"/>
<path d="M19.0623 16.1769L18.9874 17.4275C18.3606 17.6686 17.6282 17.9 16.7783 18.0999C16.454 18.1771 16.1118 18.2497 15.7516 18.3156C15.7471 18.3171 15.7418 18.3179 15.7358 18.3179L15.7418 18.0999L15.8085 15.3209C15.8145 15.3224 15.822 15.3232 15.8279 15.3247C17.0905 15.5336 18.1921 15.8264 19.0623 16.1769Z" fill="#676966"/>
<path d="M20.3204 16.8373C20.0194 16.9931 19.6757 17.1519 19.2893 17.3099C19.2818 17.3121 19.2758 17.3144 19.269 17.3181L19.3305 16.2892C19.3364 16.2929 19.3424 16.2952 19.3484 16.2974C19.7258 16.4659 20.0524 16.6456 20.3204 16.8373Z" fill="#676966"/>
<path d="M15.4467 18.9604L15.3996 20.9427C14.146 21.1284 12.7508 21.234 11.2786 21.2392C11.2771 21.2392 11.2771 21.2392 11.2763 21.2392L11.2666 19.3162H11.2726C12.8564 19.2884 14.2433 19.1567 15.4467 18.9604Z" fill="#676966"/>
<path d="M18.9488 18.0737L18.9473 18.0999L18.8268 20.1159V20.1174C17.9626 20.4394 16.8977 20.7067 15.689 20.8984C15.6845 20.8999 15.6793 20.8999 15.6748 20.9007L15.722 18.914C15.7265 18.914 15.7325 18.9125 15.7377 18.9117C16.9703 18.6945 18.0083 18.4092 18.8717 18.1007C18.8986 18.0917 18.9241 18.0835 18.9488 18.0737Z" fill="#676966"/>
<path d="M21.166 18.1C21.166 18.8122 20.4082 19.4704 19.1306 19.9969L19.1074 20.0066L19.2205 18.1L19.228 17.9697C19.2355 17.966 19.2422 17.9637 19.2497 17.9615C19.8585 17.7263 20.3707 17.4844 20.7961 17.2538C21.0387 17.5226 21.166 17.8072 21.166 18.1Z" fill="#676966"/>
<path d="M22.0003 6.98392L21.9943 7.05955C21.9958 7.06105 21.9958 7.0618 21.9943 7.0633C21.9209 7.59199 21.1136 8.0795 19.7964 8.4719C19.7806 8.47639 19.7649 8.48164 19.7492 8.48613C19.6855 8.5056 19.6189 8.52432 19.553 8.54304C19.541 8.54679 19.529 8.54903 19.517 8.55278C18.548 8.82012 17.3356 9.03954 15.9577 9.1953C15.9457 9.1968 15.9338 9.19755 15.9218 9.19904C15.8581 9.20653 15.7937 9.21327 15.7293 9.22076C15.7136 9.22226 15.6994 9.2245 15.6836 9.22525C14.3245 9.36754 12.8133 9.44841 11.2204 9.45066H10.9478C9.3378 9.44317 7.81387 9.3593 6.4472 9.20953C6.35434 9.19904 6.26298 9.18931 6.17237 9.17807C6.17087 9.17807 6.17012 9.17658 6.16862 9.17658C6.14316 9.17433 6.1177 9.17059 6.09374 9.16834C4.78473 9.01183 3.63298 8.79691 2.70889 8.5378L2.68867 8.11619L2.68118 7.96417L2.64299 7.17263C2.62727 7.16888 2.61304 7.16514 2.59731 7.16065C2.53216 7.14267 2.46626 7.11572 2.40186 7.08202C2.38988 7.07453 2.3764 7.06854 2.36442 7.0603L2.40261 7.87731L2.41085 8.04131L2.43106 8.45692C1.15351 8.06752 0.367207 7.59199 0.284832 7.07378V7.06629C0.284832 7.06404 0.284832 7.0618 0.283335 7.0588C0.281837 7.03484 0.27959 7.00788 0.277344 6.98317V6.97718C0.27959 6.70384 0.478787 6.44099 0.843482 6.19612C1.01722 6.0778 1.22914 5.96472 1.47627 5.85538C1.7159 5.74905 1.98849 5.64945 2.29103 5.55135C2.30151 5.5476 2.31424 5.54386 2.32622 5.54086C2.37116 5.52663 2.41534 5.51316 2.46102 5.49968C2.47899 5.57906 2.50221 5.65769 2.52767 5.73332C2.53965 5.77301 2.55388 5.8127 2.56885 5.85014C2.5726 5.85988 2.57634 5.86961 2.57934 5.87935H2.58084V5.88159C2.59806 5.92727 2.61603 5.97221 2.63475 6.01564C2.81822 6.4365 3.07958 6.77498 3.37313 6.98317H3.40234C3.47497 6.92026 3.54087 6.84463 3.59779 6.75776C3.60827 6.74054 3.6195 6.72406 3.62924 6.70684C3.70413 6.58253 3.76403 6.438 3.80672 6.27999C3.81496 6.25078 3.82245 6.22083 3.82844 6.19087C3.84192 6.12947 3.8539 6.06656 3.86064 6.00291C3.86887 5.93926 3.87487 5.87261 3.87861 5.80521C3.88086 5.77151 3.88235 5.73781 3.88235 5.70411C3.88385 5.65095 3.88235 5.59703 3.88011 5.54236C3.88011 5.53263 3.88011 5.52214 3.87861 5.51241C3.87711 5.4832 3.87487 5.45474 3.87262 5.42554C3.86438 5.33792 3.8524 5.24806 3.83667 5.15894V5.1552C4.51664 5.01516 5.27449 4.89385 6.09374 4.79575H6.09748C6.26223 4.77553 6.43147 4.75756 6.60221 4.73883C7.98311 4.5943 9.51977 4.51343 11.1403 4.51343C12.3272 4.51343 13.4685 4.55686 14.5371 4.63774C16.7313 4.80024 18.6177 5.12 19.9439 5.53637C19.9461 5.53637 19.9476 5.53787 19.9499 5.53862C20.2067 5.618 20.4426 5.70337 20.6546 5.79023C21.512 6.14669 22.0003 6.55257 22.0003 6.98392Z" fill="#B3B4B3"/>
<path d="M21.4556 6.98395C21.4556 7.10826 20.9883 7.67665 18.6983 8.19636C16.6846 8.65391 14.0014 8.90627 11.1393 8.90627C9.59665 8.90627 8.10642 8.83289 6.74425 8.69435C6.63716 8.68386 6.53232 8.67113 6.42748 8.66065C6.41924 8.65915 6.41175 8.6584 6.40426 8.6584H6.40202C6.32039 8.64867 6.23952 8.63893 6.15864 8.6292C6.13542 8.62545 6.11371 8.62321 6.09199 8.62096C5.17763 8.51013 4.33142 8.36784 3.57957 8.1971C3.24108 8.12147 2.94229 8.04284 2.67944 7.96571L2.64125 7.17416C2.62552 7.17042 2.61129 7.16667 2.59557 7.16218C2.53041 7.14421 2.46451 7.11725 2.40011 7.08355C2.38813 7.07606 2.37465 7.07007 2.36267 7.06183L2.40086 7.87884C1.65724 7.6392 1.24387 7.41005 1.0297 7.23931C0.873937 7.11725 0.822266 7.02589 0.822266 6.9847C0.822266 6.9525 0.855964 6.88585 0.950321 6.79823C1.07313 6.68291 1.30228 6.52715 1.69469 6.35341C1.86842 6.27778 2.07286 6.19915 2.31624 6.11752C2.32822 6.11378 2.3402 6.10928 2.35219 6.10554C2.41209 6.08607 2.475 6.06585 2.54015 6.04563C2.55438 6.04189 2.5701 6.03739 2.58583 6.03215C2.60156 6.02766 2.61728 6.02242 2.63301 6.01792C2.81648 6.43878 3.07783 6.77727 3.37138 6.98545H3.40059C3.47323 6.92255 3.53913 6.84691 3.59604 6.76004C3.60653 6.74282 3.61776 6.72634 3.62749 6.70912C3.70238 6.58481 3.76229 6.44028 3.80497 6.28227C3.81321 6.25306 3.8207 6.22311 3.82669 6.19316C3.84017 6.13175 3.85215 6.06885 3.85889 6.00519C3.86713 5.94154 3.87312 5.87489 3.87686 5.80749C3.87911 5.77379 3.88061 5.7401 3.88061 5.7064C4.55533 5.56411 5.29745 5.44355 6.09199 5.34844C6.09574 5.34844 6.10023 5.34694 6.10397 5.34694C6.27396 5.32523 6.4447 5.30576 6.61994 5.28778C8.01506 5.13951 9.54948 5.06238 11.1386 5.06238C14.0007 5.06238 16.6839 5.31399 18.6975 5.7708C20.9876 6.29126 21.4556 6.85964 21.4556 6.98395Z" fill="#676966"/>
<path d="M2.57869 5.88002C2.57869 5.88152 2.57869 5.88152 2.58018 5.88152V5.88002H2.57869ZM2.57869 5.88002C2.57869 5.88152 2.57869 5.88152 2.58018 5.88152V5.88002H2.57869ZM2.57869 5.88002C2.57869 5.88152 2.57869 5.88152 2.58018 5.88152V5.88002H2.57869ZM2.57869 5.88002C2.57869 5.88152 2.57869 5.88152 2.58018 5.88152V5.88002H2.57869ZM2.57869 5.88002C2.57869 5.88152 2.57869 5.88152 2.58018 5.88152V5.88002H2.57869ZM2.57869 5.88002C2.57869 5.88152 2.57869 5.88152 2.58018 5.88152V5.88002H2.57869ZM2.57869 5.88002C2.57869 5.88152 2.57869 5.88152 2.58018 5.88152V5.88002H2.57869ZM2.57869 5.88002C2.57869 5.88152 2.57869 5.88152 2.58018 5.88152V5.88002H2.57869ZM2.57869 5.88002C2.57869 5.88152 2.57869 5.88152 2.58018 5.88152V5.88002H2.57869ZM2.57869 5.88002C2.57869 5.88152 2.57869 5.88152 2.58018 5.88152V5.88002H2.57869ZM2.57869 5.88002C2.57869 5.88152 2.57869 5.88152 2.58018 5.88152V5.88002H2.57869ZM2.57869 5.88002C2.57869 5.88152 2.57869 5.88152 2.58018 5.88152V5.88002H2.57869ZM2.57869 5.88002C2.57869 5.88152 2.57869 5.88152 2.58018 5.88152V5.88002H2.57869ZM2.57869 5.88002C2.57869 5.88152 2.57869 5.88152 2.58018 5.88152V5.88002H2.57869ZM2.57869 5.88002C2.57869 5.88152 2.57869 5.88152 2.58018 5.88152V5.88002H2.57869ZM2.57869 5.88002C2.57869 5.88152 2.57869 5.88152 2.58018 5.88152V5.88002H2.57869ZM2.57869 5.88002C2.57869 5.88152 2.57869 5.88152 2.58018 5.88152V5.88002H2.57869ZM2.57869 5.88002C2.57869 5.88152 2.57869 5.88152 2.58018 5.88152V5.88002H2.57869ZM2.57869 5.88002C2.57869 5.88152 2.57869 5.88152 2.58018 5.88152V5.88002H2.57869ZM2.57869 5.88002C2.57869 5.88152 2.57869 5.88152 2.58018 5.88152V5.88002H2.57869ZM2.57869 5.88002C2.57869 5.88152 2.57869 5.88152 2.58018 5.88152V5.88002H2.57869ZM2.57869 5.88002C2.57869 5.88152 2.57869 5.88152 2.58018 5.88152V5.88002H2.57869ZM2.57869 5.88002C2.57869 5.88152 2.57869 5.88152 2.58018 5.88152V5.88002H2.57869ZM2.57869 5.88002C2.57869 5.88152 2.57869 5.88152 2.58018 5.88152V5.88002H2.57869ZM2.57869 5.88002C2.57869 5.88152 2.57869 5.88152 2.58018 5.88152V5.88002H2.57869ZM2.57869 5.88002C2.57869 5.88152 2.57869 5.88152 2.58018 5.88152V5.88002H2.57869ZM2.57869 5.88002C2.57869 5.88152 2.57869 5.88152 2.58018 5.88152V5.88002H2.57869ZM2.57869 5.88002C2.57869 5.88152 2.57869 5.88152 2.58018 5.88152V5.88002H2.57869ZM2.57869 5.88002C2.57869 5.88152 2.57869 5.88152 2.58018 5.88152V5.88002H2.57869ZM2.57869 5.88002C2.57869 5.88152 2.57869 5.88152 2.58018 5.88152V5.88002H2.57869ZM2.57869 5.88002C2.57869 5.88152 2.57869 5.88152 2.58018 5.88152V5.88002H2.57869ZM2.57869 5.88002C2.57869 5.88152 2.57869 5.88152 2.58018 5.88152V5.88002H2.57869ZM2.57869 5.88002C2.57869 5.88152 2.57869 5.88152 2.58018 5.88152V5.88002H2.57869ZM2.57869 5.88002C2.57869 5.88152 2.57869 5.88152 2.58018 5.88152V5.88002H2.57869ZM2.57869 5.88002C2.57869 5.88152 2.57869 5.88152 2.58018 5.88152V5.88002H2.57869ZM2.57869 5.88002C2.57869 5.88152 2.57869 5.88152 2.58018 5.88152V5.88002H2.57869ZM2.57869 5.88002C2.57869 5.88152 2.57869 5.88152 2.58018 5.88152V5.88002H2.57869ZM6.74459 8.69349L6.68319 6.98384L6.62028 5.28692L6.60081 4.741L6.58883 4.42049C6.52518 3.66714 5.74037 2.7056 5.2274 2.59402L2.39222 1.99119L2.26416 1.96199H2.25817L1.93317 1.89309C1.72124 1.8519 0.941678 1.94626 0.758207 2.0174C0.541038 2.10053 0.402499 2.20761 0.321622 2.34241L0.320125 2.3439C0.246736 2.46822 0.221275 2.61349 0.229513 2.78648L0.842829 6.19679L0.949916 6.79662L0.983614 6.98309L1.02929 7.2377L1.11017 7.68852L2.40944 8.04123L2.40121 7.87723L2.36301 7.06022C2.375 7.06846 2.38848 7.07445 2.40046 7.08194C2.46411 7.11564 2.53076 7.14185 2.59591 7.16057C2.61164 7.16506 2.62586 7.16881 2.64159 7.17255L2.67978 7.9641L2.68727 8.11612L6.09234 9.03946L6.16497 9.05968H6.16722L6.18894 9.06567L6.43681 8.95259L6.74909 8.80956L6.74459 8.69349ZM3.37323 6.98384C3.07892 6.77566 2.81757 6.43642 2.63485 6.01631C2.61538 5.97288 2.59741 5.9287 2.58093 5.88227V5.88002H2.57943C2.57569 5.87028 2.57195 5.86055 2.56895 5.85081C2.55472 5.81337 2.53974 5.77368 2.52776 5.73399C2.5023 5.65836 2.47984 5.57973 2.46111 5.50035C2.45363 5.47863 2.44913 5.45691 2.44389 5.4352C2.33456 4.94469 2.34279 4.46842 2.44614 4.07377V4.07227C2.45812 4.02659 2.4716 3.98166 2.48583 3.93972C2.48732 3.93748 2.48732 3.93523 2.48807 3.93224C2.50006 3.89629 2.51204 3.86109 2.52627 3.8274C2.57794 3.69934 2.64159 3.58252 2.71573 3.48142C3.20024 3.68287 3.63907 4.27222 3.80981 5.03231C3.81955 5.07425 3.82778 5.11543 3.83527 5.15662V5.16037C3.851 5.24948 3.86298 5.33859 3.87122 5.42696C3.87346 5.45617 3.87571 5.48462 3.87721 5.51383C3.87871 5.52356 3.87871 5.53405 3.87871 5.54378C3.88095 5.5977 3.88245 5.65237 3.88095 5.70554C3.88095 5.73923 3.87945 5.77293 3.87721 5.80663C3.87346 5.87403 3.86747 5.94068 3.85924 6.00433C3.85175 6.06798 3.83977 6.13089 3.82703 6.1923C3.82104 6.22225 3.81356 6.2522 3.80532 6.28141C3.76338 6.43942 3.70272 6.58395 3.62784 6.70826C3.6181 6.72548 3.60762 6.74196 3.59639 6.75918C3.53947 6.84605 3.47357 6.92168 3.40093 6.98459H3.37323V6.98384ZM2.36227 2.31095L2.40795 2.31919L2.46111 3.41477C2.44539 3.41253 2.43116 3.41103 2.41543 3.41028C2.35178 3.40579 2.28738 3.40878 2.22373 3.42002C2.21174 3.42226 2.20051 3.42376 2.18853 3.4275L2.13311 2.26677L2.16831 2.27426L2.36227 2.31095ZM2.57869 5.88002C2.57869 5.88152 2.57869 5.88152 2.58018 5.88152V5.88002H2.57869Z" fill="#B3B4B3"/>
<path d="M2.57853 5.8801C2.57853 5.8816 2.57853 5.8816 2.58002 5.8816V5.8801H2.57853ZM2.57853 5.8801C2.57853 5.8816 2.57853 5.8816 2.58002 5.8816V5.8801H2.57853ZM2.57853 5.8801C2.57853 5.8816 2.57853 5.8816 2.58002 5.8816V5.8801H2.57853ZM2.57853 5.8801C2.57853 5.8816 2.57853 5.8816 2.58002 5.8816V5.8801H2.57853ZM2.57853 5.8801C2.57853 5.8816 2.57853 5.8816 2.58002 5.8816V5.8801H2.57853ZM2.57853 5.8801C2.57853 5.8816 2.57853 5.8816 2.58002 5.8816V5.8801H2.57853ZM2.57853 5.8801C2.57853 5.8816 2.57853 5.8816 2.58002 5.8816V5.8801H2.57853ZM2.57853 5.8801C2.57853 5.8816 2.57853 5.8816 2.58002 5.8816V5.8801H2.57853ZM2.57853 5.8801C2.57853 5.8816 2.57853 5.8816 2.58002 5.8816V5.8801H2.57853ZM2.57853 5.8801C2.57853 5.8816 2.57853 5.8816 2.58002 5.8816V5.8801H2.57853ZM2.57853 5.8801C2.57853 5.8816 2.57853 5.8816 2.58002 5.8816V5.8801H2.57853ZM2.57853 5.8801C2.57853 5.8816 2.57853 5.8816 2.58002 5.8816V5.8801H2.57853ZM2.57853 5.8801C2.57853 5.8816 2.57853 5.8816 2.58002 5.8816V5.8801H2.57853ZM2.57853 5.8801C2.57853 5.8816 2.57853 5.8816 2.58002 5.8816V5.8801H2.57853ZM2.57853 5.8801C2.57853 5.8816 2.57853 5.8816 2.58002 5.8816V5.8801H2.57853ZM2.57853 5.8801C2.57853 5.8816 2.57853 5.8816 2.58002 5.8816V5.8801H2.57853ZM2.57853 5.8801C2.57853 5.8816 2.57853 5.8816 2.58002 5.8816V5.8801H2.57853ZM2.57853 5.8801C2.57853 5.8816 2.57853 5.8816 2.58002 5.8816V5.8801H2.57853ZM2.57853 5.8801C2.57853 5.8816 2.57853 5.8816 2.58002 5.8816V5.8801H2.57853ZM2.57853 5.8801C2.57853 5.8816 2.57853 5.8816 2.58002 5.8816V5.8801H2.57853ZM2.57853 5.8801C2.57853 5.8816 2.57853 5.8816 2.58002 5.8816V5.8801H2.57853ZM2.57853 5.8801C2.57853 5.8816 2.57853 5.8816 2.58002 5.8816V5.8801H2.57853ZM2.57853 5.8801C2.57853 5.8816 2.57853 5.8816 2.58002 5.8816V5.8801H2.57853ZM2.57853 5.8801C2.57853 5.8816 2.57853 5.8816 2.58002 5.8816V5.8801H2.57853ZM2.57853 5.8801C2.57853 5.8816 2.57853 5.8816 2.58002 5.8816V5.8801H2.57853ZM2.57853 5.8801C2.57853 5.8816 2.57853 5.8816 2.58002 5.8816V5.8801H2.57853ZM2.57853 5.8801C2.57853 5.8816 2.57853 5.8816 2.58002 5.8816V5.8801H2.57853ZM2.57853 5.8801C2.57853 5.8816 2.57853 5.8816 2.58002 5.8816V5.8801H2.57853ZM2.57853 5.8801C2.57853 5.8816 2.57853 5.8816 2.58002 5.8816V5.8801H2.57853ZM2.57853 5.8801C2.57853 5.8816 2.57853 5.8816 2.58002 5.8816V5.8801H2.57853ZM2.57853 5.8801C2.57853 5.8816 2.57853 5.8816 2.58002 5.8816V5.8801H2.57853ZM2.57853 5.8801C2.57853 5.8816 2.57853 5.8816 2.58002 5.8816V5.8801H2.57853ZM2.57853 5.8801C2.57853 5.8816 2.57853 5.8816 2.58002 5.8816V5.8801H2.57853ZM2.57853 5.8801C2.57853 5.8816 2.57853 5.8816 2.58002 5.8816V5.8801H2.57853ZM2.57853 5.8801C2.57853 5.8816 2.57853 5.8816 2.58002 5.8816V5.8801H2.57853ZM2.57853 5.8801C2.57853 5.8816 2.57853 5.8816 2.58002 5.8816V5.8801H2.57853ZM2.57853 5.8801C2.57853 5.8816 2.57853 5.8816 2.58002 5.8816V5.8801H2.57853ZM6.16706 9.17733L6.16482 9.0605L6.16257 8.90399V8.88827L6.15882 8.6666V8.62916L6.13112 6.98467L6.10491 5.34691L6.09667 4.79874L6.09293 4.57858C6.09293 3.67845 5.45415 2.90488 4.56974 2.73638L2.40779 2.32077L2.46095 3.41635C2.44523 3.4141 2.431 3.41261 2.41527 3.41186C2.35162 3.40736 2.28722 3.41036 2.22357 3.42159C2.21158 3.42384 2.20035 3.42534 2.18837 3.42908L2.13295 2.26835L1.19538 2.08862C0.889098 2.02946 0.558102 2.14179 0.321462 2.34548L0.319965 2.34698C0.118521 2.52146 -0.012529 2.76409 0.000950521 3.02919C0.0436355 3.86267 0.192659 5.86287 0.27728 6.97793V6.98392C0.279526 7.00938 0.281773 7.03559 0.283271 7.05955C0.284768 7.0618 0.284768 7.06404 0.284768 7.06704V7.07453C0.286266 7.09025 0.287015 7.10598 0.288513 7.12021C0.294504 7.1891 0.298997 7.25426 0.302741 7.31267C0.304988 7.33289 0.306485 7.35236 0.307234 7.37033C0.310978 7.41751 0.314723 7.46094 0.316969 7.49913C0.324458 7.586 0.328951 7.6534 0.332695 7.69683C0.334193 7.71855 0.334942 7.73427 0.33644 7.74401C0.337937 7.75449 0.337937 7.75974 0.337937 7.75974L2.43474 8.55278L2.431 8.45767L2.41078 8.04206L2.40254 7.87806L2.36435 7.06105C2.37633 7.06929 2.38981 7.07528 2.40179 7.08277C2.46545 7.11647 2.5321 7.14267 2.59725 7.1614C2.61297 7.16589 2.6272 7.16963 2.64293 7.17338L2.68112 7.96492L2.68861 8.11694L2.70883 8.53855L2.71257 8.62317L6.1723 9.40798L6.16706 9.17733ZM2.44598 4.07385V4.07235C2.45796 4.02667 2.47144 3.98174 2.48567 3.9398C2.48716 3.93756 2.48717 3.93531 2.48791 3.93231C2.4999 3.89637 2.51188 3.86117 2.52611 3.82747C2.57778 3.69942 2.64143 3.5826 2.71557 3.4815C3.20008 3.68294 3.63891 4.2723 3.80965 5.03239C3.81939 5.07432 3.82762 5.11551 3.83511 5.1567V5.16044C3.85084 5.24956 3.86282 5.33867 3.87106 5.42704C3.8733 5.45624 3.87555 5.4847 3.87705 5.51391C3.87855 5.52364 3.87855 5.53412 3.87855 5.54386C3.88079 5.59778 3.88229 5.65244 3.88079 5.70561C3.88079 5.73931 3.8793 5.77301 3.87705 5.80671C3.8733 5.87411 3.86731 5.94076 3.85908 6.00441C3.85159 6.06806 3.83961 6.13097 3.82688 6.19237C3.82088 6.22233 3.8134 6.25228 3.80516 6.28149C3.76322 6.4395 3.70256 6.58403 3.62768 6.70834C3.61794 6.72556 3.60746 6.74204 3.59623 6.75926C3.53931 6.84613 3.47341 6.92176 3.40077 6.98467H3.37157C3.07727 6.77648 2.81591 6.43725 2.63319 6.01714C2.61372 5.97371 2.59575 5.92952 2.57927 5.88309V5.88085H2.57778C2.57403 5.87111 2.57029 5.86138 2.56729 5.85164C2.55306 5.8142 2.53809 5.77451 2.52611 5.73482C2.50064 5.65918 2.47818 5.58055 2.45946 5.50117C2.45197 5.47946 2.44748 5.45774 2.44223 5.43602C2.3344 4.94477 2.34264 4.46925 2.44598 4.07385ZM2.57853 5.8801C2.57853 5.8816 2.57853 5.8816 2.58002 5.8816V5.8801H2.57853Z" fill="#676966"/>
<path d="M18.3504 4.07757C18.3107 4.12325 18.265 4.16443 18.2178 4.20188C18.1175 4.27751 18.0044 4.33068 17.8801 4.3539C17.2616 4.47222 16.6018 3.83119 16.4049 2.91983C16.2087 2.01146 16.5516 1.17873 17.1709 1.06191C17.3215 1.0327 17.4735 1.04843 17.6203 1.10384C17.2129 1.35172 16.9283 1.89913 16.9283 2.53417C16.9283 3.40284 17.4607 4.10677 18.1175 4.10677C18.1984 4.10677 18.2748 4.09704 18.3504 4.07757Z" fill="#B3B4B3"/>
<path d="M2.59559 7.16062C2.53044 7.14265 2.46454 7.11569 2.40014 7.08199L2.39564 6.98314L2.35371 6.10323L2.32525 5.54159L2.22266 3.41932C2.28631 3.40884 2.35071 3.40509 2.41436 3.40958L2.44582 4.07233V4.07382C2.34247 4.46922 2.33349 4.94475 2.44357 5.43525C2.44806 5.45697 2.45331 5.47868 2.46079 5.5004C2.47877 5.57978 2.50198 5.65841 2.52744 5.73405L2.54167 6.04407L2.58735 6.98389L2.59559 7.16062Z" fill="white"/>
<path d="M15.921 9.19226V9.19825C15.8573 9.20574 15.7929 9.21248 15.7285 9.21997V9.21248C15.7929 9.20574 15.8566 9.19975 15.921 9.19226Z" fill="white"/>
<path d="M19.7504 8.46814L19.7489 8.48611C19.6853 8.50558 19.6186 8.5243 19.5527 8.54303L19.5542 8.5258C19.6201 8.50783 19.6853 8.48911 19.7504 8.46814Z" fill="white"/>
<path d="M3.40158 6.98393C3.39783 6.98842 3.39334 6.99216 3.3881 6.99591C3.28176 7.08652 3.16044 7.15017 3.0264 7.18013C2.89834 7.20933 2.76954 7.20559 2.64074 7.17264C2.62501 7.16889 2.61078 7.16515 2.59506 7.16066C2.52991 7.14268 2.46401 7.11572 2.3996 7.08203C2.38762 7.07454 2.37414 7.06855 2.36216 7.06031C2.32097 7.03709 2.28053 7.01238 2.2401 6.98318C2.03416 6.8364 1.8462 6.61923 1.69418 6.35189C1.60731 6.20137 1.53392 6.03512 1.47476 5.85539C1.44481 5.76478 1.41785 5.67117 1.39613 5.57457C1.16249 4.53965 1.51295 3.57661 2.17944 3.42684C2.18169 3.42534 2.18393 3.42534 2.18693 3.42534C2.19891 3.4216 2.21014 3.42085 2.22212 3.41785C2.28578 3.40737 2.35018 3.40363 2.41383 3.40812C2.42956 3.40962 2.44379 3.41037 2.45951 3.41261C2.54488 3.42235 2.631 3.44481 2.71487 3.48001C2.64148 3.58111 2.57783 3.69793 2.52541 3.82598C2.51193 3.86118 2.4992 3.89488 2.48722 3.93082C2.48572 3.93307 2.48572 3.93532 2.48497 3.93831C2.47075 3.98025 2.45727 4.02518 2.44528 4.07086V4.07236C2.34194 4.46776 2.33295 4.94328 2.44304 5.43379C2.44753 5.4555 2.45277 5.47722 2.46026 5.49894C2.47823 5.57832 2.50145 5.65695 2.52691 5.73258C2.54039 5.77227 2.55312 5.81121 2.5681 5.8494C2.57184 5.85914 2.57559 5.86887 2.57858 5.87861C2.57858 5.88011 2.57858 5.88011 2.58008 5.88011V5.8816C2.5973 5.92728 2.61527 5.97222 2.634 6.01565C2.81747 6.43651 3.07882 6.77499 3.37237 6.98318H3.40158V6.98393Z" fill="#B3B4B3"/>
<path d="M3.87188 5.42626C3.86365 5.33865 3.85166 5.24878 3.83594 5.15967C3.85241 5.24953 3.86439 5.33865 3.87188 5.42626Z" fill="black"/>
<path d="M3.40176 6.98315C3.39802 6.98765 3.39353 6.99139 3.38828 6.99514C3.38379 6.99139 3.3778 6.98765 3.37256 6.98315H3.40176Z" fill="black"/>
</g>
<defs>
<clipPath id="clip0_563_4682">
<rect width="22" height="21.2407" fill="white"/>
</clipPath>
</defs>
</svg>
