<svg width="25" height="24" viewBox="0 0 25 24" fill="none" xmlns="http://www.w3.org/2000/svg">
<rect width="24" height="24" transform="translate(0.5)" fill="white"/>
<g clip-path="url(#clip0_563_4726)">
<path d="M18.9951 10.0071H20.7736L22.013 11.9548H18.9951V10.0071Z" fill="#B3B4B3"/>
<path d="M22.0052 12.9172H23.7609L25.0003 14.865H21.9824L22.0052 12.9172Z" fill="#B3B4B3"/>
<path d="M22.013 11.9548H18.9951V18.5451H22.013V11.9548Z" fill="#676966"/>
<path d="M25.0003 14.8804H21.9824V18.5451H25.0003V14.8804Z" fill="#676966"/>
<path d="M13.2199 6.0741V8.40239C12.2413 8.4753 11.1972 8.51343 10.123 8.51677V6.16372C11.2146 6.16172 12.258 6.12894 13.2199 6.0741Z" fill="#676966"/>
<path d="M13.2213 14.2228V18.7423C12.2742 18.8453 11.2348 18.9061 10.1245 18.9101V14.3713C11.1632 14.3679 12.2147 14.3178 13.2213 14.2228Z" fill="#676966"/>
<path d="M9.91194 13.8743C8.83775 13.8723 7.795 13.8228 6.81512 13.7299L6.81445 8.90271C7.90938 8.97896 8.98958 9.01173 9.91127 9.01374L9.91194 13.8743Z" fill="#676966"/>
<path d="M13.2212 13.7258C12.2427 13.8208 11.1986 13.8703 10.1244 13.873L10.123 9.01371C10.5632 9.0117 11.0528 9.00301 11.5685 8.98495C12.0968 8.96555 12.6547 8.93679 13.2192 8.89465L13.2212 13.7258Z" fill="#676966"/>
<path d="M9.91176 14.3726V18.9102C8.80212 18.9068 7.76338 18.8479 6.81494 18.7456V14.2255C7.82157 14.3211 8.87436 14.3706 9.91176 14.3726Z" fill="#676966"/>
<path d="M16.5294 8.4834C15.5783 8.66733 14.4974 8.79442 13.4326 8.87869L13.434 13.7059C14.5757 13.5875 15.6231 13.4109 16.5174 13.1808C16.5214 13.1795 16.5261 13.1788 16.5301 13.1775L16.5294 8.4834Z" fill="#676966"/>
<path d="M16.5294 5.74365V7.98099C16.498 7.98634 16.4659 7.99303 16.4324 7.99905C15.5596 8.16827 14.5423 8.29936 13.4326 8.38565V6.06136C14.6132 5.98845 15.6666 5.87943 16.5294 5.74365Z" fill="#676966"/>
<path d="M16.5309 13.6877V18.1143C16.4654 18.135 16.3971 18.1544 16.3276 18.1738C15.8968 18.2935 15.4213 18.4019 14.9056 18.4968C14.4461 18.5818 13.9545 18.6574 13.4341 18.7176V14.2001C14.5591 14.0864 15.6192 13.9138 16.5309 13.6877Z" fill="#676966"/>
<path d="M9.91078 6.16373V8.51678C9.3369 8.51477 8.78844 8.50608 8.26606 8.48802C7.75572 8.46996 7.27146 8.44521 6.81396 8.41378V6.07678C7.77846 6.13163 8.82054 6.16173 9.91078 6.16373Z" fill="#676966"/>
<path d="M16.5309 18.6393V20.0064C15.6674 20.2365 14.6139 20.4198 13.4341 20.5435V19.2199C14.0026 19.1563 14.5491 19.0747 15.0668 18.9777C15.5871 18.8787 16.0781 18.767 16.5309 18.6393Z" fill="#676966"/>
<path d="M18.999 17.4935V18.4968H18.9957C18.9957 18.5008 18.9944 18.5042 18.9944 18.5089C18.9903 18.551 18.9817 18.5938 18.9676 18.6346C18.8051 19.1362 17.9937 19.5917 16.7437 19.9476V18.5764C16.8319 18.5503 16.9182 18.5236 17.0018 18.4968C17.3169 18.3945 17.6038 18.2868 17.862 18.1738C18.2365 18.0099 18.5496 17.836 18.8017 17.6507C18.8606 17.6079 18.9168 17.5638 18.9676 17.5196C18.977 17.5123 18.9857 17.5042 18.9944 17.4969C18.9957 17.4962 18.9977 17.4949 18.999 17.4935Z" fill="#676966"/>
<path d="M13.2213 19.2439V20.5642C12.5424 20.6298 11.822 20.6753 11.0749 20.698C11.0655 20.1127 10.586 19.6399 9.99871 19.6399C9.41078 19.6399 8.93188 20.1121 8.92252 20.698C8.18878 20.6766 7.4838 20.6324 6.81494 20.5676V19.2472C7.7975 19.3496 8.83958 19.4058 9.91176 19.4084H10.0536C10.077 19.4084 10.101 19.4084 10.1245 19.4071C11.1953 19.4044 12.2394 19.3469 13.2213 19.2439Z" fill="#676966"/>
<path d="M6.60258 14.2048C6.03405 14.1486 5.4809 14.077 4.95584 13.9908C4.4328 13.9045 3.93784 13.8048 3.479 13.6918V18.1196C3.54121 18.1377 3.60475 18.1564 3.6703 18.1745C4.0997 18.2929 4.57326 18.4019 5.08761 18.4975C5.55982 18.5845 6.06615 18.6621 6.60191 18.7236V14.2048H6.60258Z" fill="#676966"/>
<path d="M6.60258 19.2246C5.45214 19.0942 4.392 18.8975 3.479 18.6414V20.0092C3.91242 20.1242 4.394 20.2279 4.91504 20.3182C5.4401 20.4085 6.00528 20.4861 6.60258 20.5463V19.2246Z" fill="#676966"/>
<path d="M18.9992 4.83472V7.01453C18.9042 7.15098 18.6869 7.31083 18.3103 7.47203C17.9464 7.62921 17.4341 7.78974 16.7432 7.93688V5.70958C18.1264 5.47615 18.9725 5.17048 18.9972 4.83472C18.9979 4.83472 18.9979 4.83472 18.9992 4.83472Z" fill="#676966"/>
<path d="M18.9992 7.6626V11.9313C18.9979 11.9333 18.9959 11.9366 18.9952 11.9386C18.8976 12.1152 18.6802 12.3165 18.3096 12.5212C17.9458 12.7225 17.4348 12.9272 16.7445 13.1185L16.7432 8.44115C17.6936 8.24651 18.4962 7.99101 18.9992 7.6626Z" fill="#676966"/>
<path d="M18.9989 12.6644V16.7057C18.9975 16.709 18.9955 16.7124 18.9949 16.715C18.9875 16.7311 18.9775 16.7485 18.9681 16.7659C18.8671 16.9498 18.6765 17.1351 18.4083 17.315C18.0156 17.5779 17.4511 17.8287 16.7441 18.0501V13.6329C17.716 13.3754 18.5039 13.053 18.9949 12.6678C18.9955 12.6664 18.9975 12.6658 18.9989 12.6644Z" fill="#676966"/>
<path d="M6.60245 13.7072C5.44465 13.5908 4.38451 13.4122 3.48021 13.1801H3.47888L3.47754 8.50012C3.9531 8.59176 4.4621 8.66801 4.98983 8.73155C5.51622 8.79509 6.05867 8.84793 6.60111 8.88672L6.60245 13.7072Z" fill="#676966"/>
<path d="M6.60111 6.06337V8.39568C5.36038 8.30338 4.31629 8.16225 3.47754 7.99437V5.745C4.34839 5.88278 5.41054 5.99114 6.60111 6.06337Z" fill="#676966"/>
<path d="M3.26536 13.6363V18.0534C2.55302 17.832 1.98583 17.5799 1.59054 17.315C1.30828 17.1264 1.11364 16.9331 1.01465 16.7391V12.6758C1.26748 12.8724 1.59789 13.0523 1.99051 13.2162C2.36374 13.3714 2.79181 13.5125 3.26536 13.6363Z" fill="#676966"/>
<path d="M3.26536 13.1218C1.89219 12.7419 1.22467 12.3078 1.01465 11.9607V7.68469C1.27216 7.85258 1.60793 8.00106 2.00322 8.13082C2.37645 8.2559 2.80318 8.36358 3.26469 8.45789L3.26536 13.1218Z" fill="#676966"/>
<path d="M3.265 5.71164V7.94897C2.00353 7.68009 1.24437 7.34967 1.01562 7.04601V4.89563C1.13134 5.20665 1.96005 5.49225 3.265 5.71164Z" fill="#676966"/>
<path d="M3.26543 19.9522C1.85547 19.5516 1 19.0252 1 18.4473C1 18.4018 1.01538 17.5076 1.01538 17.5076C1.07224 17.5557 1.13177 17.6032 1.19598 17.6507C1.4488 17.836 1.76183 18.0099 2.13639 18.1738C2.39591 18.2868 2.68419 18.3951 3.00056 18.4968C3.08684 18.5249 3.17513 18.553 3.26543 18.5784V19.9522Z" fill="#676966"/>
<path d="M9.99929 5.63937C5.44235 5.63937 2.7027 5.17184 1.78369 4.81935C2.7027 4.46753 5.44235 4 9.99929 4C14.5562 4 17.2959 4.46753 18.2149 4.82002C17.2959 5.17184 14.5556 5.63937 9.99929 5.63937Z" fill="#676966"/>
</g>
<defs>
<clipPath id="clip0_563_4726">
<rect width="24" height="16.6981" fill="white" transform="translate(1 4)"/>
</clipPath>
</defs>
</svg>
