<svg width="24" height="24" viewBox="0 0 24 24" fill="none" xmlns="http://www.w3.org/2000/svg">
<rect width="24" height="24" fill="white"/>
<g clip-path="url(#clip0_563_4774)">
<path d="M17.9899 2.54895C17.9957 2.55836 17.9993 2.5685 17.9993 2.57792C17.9993 2.86686 15.3139 3.10221 12.0007 3.10221C8.71294 3.10221 6.04273 2.87048 6.00146 2.58516V4.11386H6.06301C6.06301 4.06027 6.04418 4.02262 6.02898 4.00306C6.44457 4.23407 8.66226 4.54836 12 4.54836C15.3928 4.54836 17.6351 4.22176 18 3.98931V2.54895H17.9899ZM6.00146 2.54895V2.5714C6.00146 2.56416 6.00508 2.55619 6.00943 2.54895H6.00146ZM16.4376 4.91696C16.1545 4.95099 15.8482 4.97996 15.5238 5.0053V6.82802H15.7874C15.9322 6.82802 16.048 6.94461 16.048 7.08871V7.81577C16.048 7.9606 15.9315 8.07647 15.7874 8.07647H15.5238V13.0616H15.7874C15.9322 13.0616 16.048 13.1782 16.048 13.3223V14.0493C16.048 14.1942 15.9315 14.31 15.7874 14.31H15.5238V16.3131C16.8995 16.1118 17.7676 15.8199 17.9993 15.6092V4.62439C17.6843 4.73374 17.1775 4.82933 16.4376 4.91696ZM13.6356 7.37258L15.2914 7.15678V5.02268C14.3104 5.09365 13.1802 5.13131 12 5.13131C10.3261 5.13131 8.74914 5.05527 7.56246 4.91696C7.55667 4.91551 7.54943 4.91551 7.54364 4.91478V16.1494C8.58986 16.371 10.1103 16.5513 12 16.5513C13.2757 16.5513 14.3835 16.4688 15.2914 16.3471V14.0378L13.6472 13.8234C13.5878 13.8162 13.5342 13.8618 13.5342 13.9212V14.0131L13.1136 13.7937C13.0832 13.7771 13.0643 13.7474 13.0643 13.7133C13.0643 13.6807 13.0832 13.6489 13.1136 13.6344L13.5342 13.415V13.5178C13.5342 13.5714 13.582 13.6134 13.6356 13.6062L15.2914 13.3904V7.80346L13.6472 7.58911C13.5878 7.58187 13.5342 7.62749 13.5342 7.68687V7.77884L13.1136 7.55942C13.0832 7.54276 13.0643 7.51307 13.0643 7.47904C13.0643 7.44645 13.0832 7.41459 13.1136 7.4001L13.5342 7.18068V7.28351C13.5342 7.3371 13.582 7.3791 13.6356 7.37258ZM9.14446 9.14605C9.14446 9.20109 9.1155 9.25323 9.06771 9.28147L8.5913 9.57548V11.5655L9.06771 11.8595C9.1155 11.8884 9.14446 11.9399 9.14446 11.9949V12.8878C9.14446 12.9761 9.07206 13.0471 8.98517 13.0471C8.89684 13.0471 8.82589 12.9761 8.82589 12.8878V12.0847L8.34876 11.79C8.30097 11.761 8.27273 11.7096 8.27273 11.6538V9.48641C8.27273 9.43065 8.30097 9.37923 8.34876 9.35027L8.82516 9.05626V8.25316C8.82516 8.16482 8.89612 8.09385 8.98445 8.09385C9.07206 8.09385 9.14374 8.16482 9.14374 8.25316V9.14605H9.14446ZM6.00146 4.61715V15.6106C6.15858 15.7526 6.6082 15.9336 7.31123 16.0965V4.88582C6.71101 4.80761 6.27949 4.71274 6.00146 4.61715Z" fill="#676966"/>
<path d="M16.5447 16.728C17.2311 16.5846 17.6908 16.4282 18 16.2783V19.5711C17.8718 19.7072 17.4642 19.9723 16.418 20.2214C16.1487 20.2858 15.8634 20.3438 15.5615 20.3952H15.56C14.508 20.5726 13.2765 20.6689 11.9993 20.6689C10.7235 20.6689 9.49053 20.5719 8.43852 20.3952H8.43707C8.13515 20.3438 7.84989 20.2858 7.582 20.2214C6.53795 19.9723 6.12888 19.7101 6 19.5725V16.2783C6.30988 16.4297 6.77036 16.5846 7.45529 16.728C8.70641 16.9902 10.3203 17.1336 11.9993 17.1336C13.6805 17.1336 15.2936 16.9902 16.5447 16.728Z" fill="#676966"/>
<path d="M16.8655 20.7124C17.3187 20.5879 17.7053 20.4423 18 20.2758V21.4844H17.992C17.9964 21.509 17.9993 21.5336 17.9993 21.5575C17.9993 22.3548 15.3139 23 12.0007 23C8.68686 23 6 22.3541 6 21.5575C6 21.5329 6.00362 21.5083 6.00796 21.4844H6.00072V20.2772C6.2954 20.443 6.68203 20.5886 7.13455 20.7132C7.136 20.7132 7.136 20.7132 7.136 20.7132C8.42331 21.0687 10.2421 21.2527 12 21.2527C13.7594 21.2519 15.5781 21.0665 16.8655 20.7124Z" fill="#676966"/>
<path d="M6.00145 2.57141V2.58517C6 2.583 6 2.58083 6 2.57793C6 2.57576 6 2.57358 6.00145 2.57141Z" fill="white"/>
<path d="M6.00121 4.11389H6.06275C6.06275 4.06031 6.04393 4.02265 6.02873 4.0031C6.02438 4.00093 6.02076 3.99875 6.01714 3.99586C6.01135 3.99224 6.00556 3.98861 6.00049 3.98572V4.11389H6.00121Z" fill="white"/>
<path d="M6.06252 4.11384H6.00098L6.01763 3.9958L6.01908 3.99146C6.02125 3.9929 6.0227 3.99508 6.02487 3.9958C6.02632 3.99797 6.02849 4.00014 6.02921 4.00304C6.04369 4.02332 6.06252 4.06025 6.06252 4.11384Z" fill="white"/>
<path d="M14.9852 2.01453H14.949C14.6159 2.12894 12.9413 2.21367 10.927 2.21367C8.91278 2.21367 7.23811 2.12894 6.90506 2.01453H6.84424V2.56851V2.57865H6.84786C6.91809 2.74303 8.71078 2.87483 10.9125 2.87483C13.1143 2.87483 14.907 2.74303 14.9772 2.57865H14.9852V2.01453Z" fill="#676966"/>
<path d="M7.72953 1.89502L8.1415 1.18099C8.16467 1.14117 8.22187 1.14117 8.24504 1.18099L8.65701 1.89502C8.68018 1.93485 8.65122 1.98481 8.6056 1.98481H7.78166C7.73532 1.98409 7.70709 1.93412 7.72953 1.89502Z" fill="#676966"/>
<path d="M15.9455 2.49688L16.4523 1.61848C16.4805 1.56923 16.5515 1.56923 16.5797 1.61848L17.0865 2.49688C17.1148 2.54612 17.0793 2.60695 17.0228 2.60695H16.0092C15.9527 2.60695 15.9172 2.54612 15.9455 2.49688Z" fill="#676966"/>
<path d="M11.3378 2.01023C11.2733 2.01023 11.2212 1.95809 11.2212 1.89364V1.57935C11.2212 1.42076 11.3718 1.29114 11.5579 1.29114H12.2537C12.439 1.29114 12.5903 1.42004 12.5903 1.57935V1.78357C12.5903 1.84802 12.5382 1.90016 12.4738 1.90016C12.4093 1.90016 12.3572 1.84802 12.3572 1.78357V1.57935C12.3572 1.55763 12.3159 1.52432 12.2537 1.52432H11.5579C11.4956 1.52432 11.4543 1.55763 11.4543 1.57935V1.89364C11.4543 1.95809 11.4022 2.01023 11.3378 2.01023Z" fill="#676966"/>
<path d="M13.2308 2.0102C13.1664 2.0102 13.1143 1.95806 13.1143 1.89361V1.39105C13.1143 1.17597 13.3242 1 13.5827 1H14.6963C14.9547 1 15.1647 1.17525 15.1647 1.39105V1.71764C15.1647 1.78209 15.1126 1.83423 15.0481 1.83423C14.9837 1.83423 14.9316 1.78209 14.9316 1.71764V1.39105C14.9316 1.3056 14.8237 1.23318 14.6963 1.23318H13.5827C13.4553 1.23318 13.3474 1.3056 13.3474 1.39105V1.89361C13.3474 1.95806 13.2953 2.0102 13.2308 2.0102Z" fill="#676966"/>
<path d="M12.7666 2.01454H14.9416L14.9611 2.4512L15.4564 2.44179V1.73284C15.4564 1.65245 15.3912 1.58728 15.3108 1.58728H12.9121C12.8318 1.58728 12.7666 1.65245 12.7666 1.73284V2.01454Z" fill="#676966"/>
</g>
<defs>
<clipPath id="clip0_563_4774">
<rect width="12" height="22" fill="white" transform="translate(6 1)"/>
</clipPath>
</defs>
</svg>
