<svg width="25" height="24" viewBox="0 0 25 24" fill="none" xmlns="http://www.w3.org/2000/svg">
<rect width="24" height="24" transform="translate(0.5)" fill="white"/>
<g clip-path="url(#clip0_563_4533)">
<path d="M14.6645 15.1672H10.3521V18.5438H14.6645V15.1672Z" fill="#676966"/>
<path d="M8.093 18.2668V23.9728H3.0835V18.294H8.07432L8.093 18.2668Z" fill="#676966"/>
<path d="M3.07578 18.098H3L3.0737 18.0367L3.07578 18.098Z" fill="#B3B4B3"/>
<path d="M9.86916 15.1603L7.94362 18.0367H3.07373L6.55267 15.1603H9.86916Z" fill="#B3B4B3"/>
<path d="M10.0531 15.3414V18.5161L8.09326 23.9728V18.098L8.10572 18.0788V18.2487L10.0531 15.3414Z" fill="#676966"/>
<path d="M3.08347 18.098V18.294L3.07568 18.098H3.08347Z" fill="white"/>
<path d="M8.10536 18.0789V18.2941H8.07422L8.0929 18.2669V18.098L8.10536 18.0789Z" fill="white"/>
<path d="M8.1125 18.2056H7.86182V24H8.1125V18.2056Z" fill="white"/>
<path d="M8.07428 18.2941L8.02912 18.3617L7.93311 18.2941H8.07428Z" fill="white"/>
<path d="M8.10523 18.0789V18.2488L8.09277 18.2669V18.098L8.10523 18.0789Z" fill="white"/>
<path d="M21.9206 18.294V23.9728H16.9116V18.2141L16.9656 18.294H21.9206Z" fill="#676966"/>
<path d="M21.931 18.0367H17.0959L15.1377 15.1603H18.4516L21.931 18.0367Z" fill="#B3B4B3"/>
<path d="M16.9115 18.2141V23.9728L14.9502 18.5161V15.3345L16.9115 18.2141Z" fill="#676966"/>
<path d="M16.9116 18.2141L16.9656 18.294H16.9116V18.2141Z" fill="white"/>
<path d="M17.1579 18.2056H16.9072V23.9723H17.1579V18.2056Z" fill="white"/>
<path d="M16.9658 18.2941H17.0904L17.0068 18.3543L16.9658 18.2941Z" fill="white"/>
<path d="M18.3174 14.4481H6.57891C6.54414 14.4481 6.51611 14.4194 6.51611 14.3837C6.51611 14.348 6.54414 14.3192 6.57891 14.3192H18.3169C18.3517 14.3192 18.3797 14.348 18.3797 14.3837C18.3797 14.4194 18.3517 14.4481 18.3174 14.4481Z" fill="#676966"/>
<path d="M18.3174 13.4968H6.57891C6.54414 13.4968 6.51611 13.4681 6.51611 13.4324C6.51611 13.3967 6.54414 13.3679 6.57891 13.3679H18.3169C18.3517 13.3679 18.3797 13.3967 18.3797 13.4324C18.3797 13.4681 18.3517 13.4968 18.3174 13.4968Z" fill="#676966"/>
<path d="M18.3174 12.5454H6.57891C6.54414 12.5454 6.51611 12.5166 6.51611 12.481C6.51611 12.4453 6.54414 12.4165 6.57891 12.4165H18.3169C18.3517 12.4165 18.3797 12.4453 18.3797 12.481C18.3797 12.5166 18.3517 12.5454 18.3174 12.5454Z" fill="#676966"/>
<path d="M18.3174 11.5941H6.57891C6.54414 11.5941 6.51611 11.5654 6.51611 11.5297C6.51611 11.494 6.54414 11.4652 6.57891 11.4652H18.3169C18.3517 11.4652 18.3797 11.494 18.3797 11.5297C18.3797 11.5648 18.3517 11.5941 18.3174 11.5941Z" fill="#676966"/>
<path d="M6.5794 10.5138H10.6448V10.6422H6.5794C6.54411 10.6422 6.5166 10.6139 6.5166 10.5777C6.5166 10.5431 6.54411 10.5138 6.5794 10.5138Z" fill="#676966"/>
<path d="M18.3792 10.5777C18.3792 10.6139 18.3516 10.6422 18.3164 10.6422H14.2104V10.5138H18.3164C18.3516 10.5138 18.3792 10.5431 18.3792 10.5777Z" fill="#676966"/>
<path d="M6.5794 9.5625H10.6448V9.69087H6.5794C6.54411 9.69087 6.5166 9.66264 6.5166 9.62642C6.5166 9.59126 6.54411 9.5625 6.5794 9.5625Z" fill="#676966"/>
<path d="M18.3792 9.62642C18.3792 9.66264 18.3516 9.69087 18.3164 9.69087H14.2104V9.5625H18.3164C18.3516 9.5625 18.3792 9.59126 18.3792 9.62642Z" fill="#676966"/>
<path d="M6.5794 8.6106H10.6448V8.73897H6.5794C6.54411 8.73897 6.5166 8.71074 6.5166 8.67452C6.5166 8.63989 6.54411 8.6106 6.5794 8.6106Z" fill="#676966"/>
<path d="M18.3792 8.67501C18.3792 8.71123 18.3516 8.73946 18.3164 8.73946H14.2104V8.61109H18.3164C18.3516 8.61056 18.3792 8.63986 18.3792 8.67501Z" fill="#676966"/>
<path d="M6.5794 7.6593H10.6448V7.78768H6.5794C6.54411 7.78768 6.5166 7.75944 6.5166 7.72322C6.5166 7.6886 6.54411 7.6593 6.5794 7.6593Z" fill="#676966"/>
<path d="M18.3792 7.72372C18.3792 7.75994 18.3516 7.78817 18.3164 7.78817H14.2104V7.6598H18.3164C18.3516 7.65926 18.3792 7.68856 18.3792 7.72372Z" fill="#676966"/>
<path d="M6.5794 6.70789H10.6448V6.83626H6.5794C6.54411 6.83626 6.5166 6.80803 6.5166 6.77181C6.5166 6.73718 6.54411 6.70789 6.5794 6.70789Z" fill="#676966"/>
<path d="M18.3792 6.7723C18.3792 6.80852 18.3516 6.83675 18.3164 6.83675H14.2104V6.70838H18.3164C18.3516 6.70785 18.3792 6.73715 18.3792 6.7723Z" fill="#676966"/>
<path d="M6.5794 5.75659H10.6448V5.88497H6.5794C6.54411 5.88497 6.5166 5.85673 6.5166 5.82051C6.5166 5.78589 6.54411 5.75659 6.5794 5.75659Z" fill="#676966"/>
<path d="M18.3792 5.82101C18.3792 5.85723 18.3516 5.88546 18.3164 5.88546H14.2104V5.75709H18.3164C18.3516 5.75655 18.3792 5.78585 18.3792 5.82101Z" fill="#676966"/>
<path d="M14.8828 19.0536H10.1058C10.071 19.0536 10.043 19.0248 10.043 18.9891C10.043 18.9534 10.071 18.9247 10.1058 18.9247H14.8828C14.9175 18.9247 14.9456 18.9534 14.9456 18.9891C14.9456 19.0248 14.9175 19.0536 14.8828 19.0536Z" fill="#676966"/>
<path d="M15.1759 19.8766H9.81036C9.77559 19.8766 9.74756 19.8478 9.74756 19.8121C9.74756 19.7764 9.77559 19.7477 9.81036 19.7477H15.1759C15.2107 19.7477 15.2387 19.7764 15.2387 19.8121C15.2387 19.8478 15.2107 19.8766 15.1759 19.8766Z" fill="#676966"/>
<path d="M15.4686 20.6996H9.51397C9.4792 20.6996 9.45117 20.6708 9.45117 20.6351C9.45117 20.5994 9.4792 20.5707 9.51397 20.5707H15.4686C15.5034 20.5707 15.5314 20.5994 15.5314 20.6351C15.5314 20.6708 15.5034 20.6996 15.4686 20.6996Z" fill="#676966"/>
<path d="M15.7613 21.5225H9.21807C9.1833 21.5225 9.15527 21.4937 9.15527 21.458C9.15527 21.4223 9.1833 21.3936 9.21807 21.3936H15.7613C15.796 21.3936 15.8241 21.4223 15.8241 21.458C15.8241 21.4937 15.796 21.5225 15.7613 21.5225Z" fill="#676966"/>
<path d="M16.0545 22.3455H8.92169C8.88691 22.3455 8.85889 22.3167 8.85889 22.281C8.85889 22.2453 8.88691 22.2166 8.92169 22.2166H16.054C16.0887 22.2166 16.1168 22.2453 16.1168 22.281C16.1168 22.3167 16.0887 22.3455 16.0545 22.3455Z" fill="#676966"/>
<path d="M16.3471 23.1685H8.62579C8.59101 23.1685 8.56299 23.1397 8.56299 23.104C8.56299 23.0683 8.59101 23.0396 8.62579 23.0396H16.3471C16.3819 23.0396 16.4099 23.0683 16.4099 23.104C16.4094 23.1397 16.3814 23.1685 16.3471 23.1685Z" fill="#676966"/>
<path d="M16.6398 23.9919H8.3294C8.29463 23.9919 8.2666 23.9632 8.2666 23.9275C8.2666 23.8918 8.29463 23.863 8.3294 23.863H16.6398C16.6746 23.863 16.7026 23.8918 16.7026 23.9275C16.7026 23.9626 16.6741 23.9919 16.6398 23.9919Z" fill="#676966"/>
<path d="M9.73722 6.34033H7.35547V7.20486H9.73722V6.34033Z" fill="#676966"/>
<path d="M9.73722 8.24304H7.35547V9.10757H9.73722V8.24304Z" fill="#676966"/>
<path d="M9.73722 12.049H7.35547V12.9135H9.73722V12.049Z" fill="#676966"/>
<path d="M9.73722 13.9517H7.35547V14.8162H9.73722V13.9517Z" fill="#676966"/>
<path d="M9.73722 10.1458H7.35547V11.0103H9.73722V10.1458Z" fill="#676966"/>
<path d="M17.7119 6.34033H14.9746V7.20486H17.7119V6.34033Z" fill="#676966"/>
<path d="M17.7119 8.24304H14.9746V9.10757H17.7119V8.24304Z" fill="#676966"/>
<path d="M17.7119 12.049H14.9746V12.9135H17.7119V12.049Z" fill="#676966"/>
<path d="M17.7119 13.9517H14.9746V14.8162H17.7119V13.9517Z" fill="#676966"/>
<path d="M17.7119 10.1458H14.9746V11.0103H17.7119V10.1458Z" fill="#676966"/>
<path d="M21.7185 0.150269H3.28057C3.2458 0.150269 3.21777 0.121504 3.21777 0.0858154C3.21777 0.0501265 3.2458 0.0213623 3.28057 0.0213623H21.7185C21.7533 0.0213623 21.7813 0.0501265 21.7813 0.0858154C21.7813 0.121504 21.7527 0.150269 21.7185 0.150269Z" fill="#676966"/>
<path d="M21.1498 0.968994H3.82257C3.78779 0.968994 3.75977 0.94023 3.75977 0.904541C3.75977 0.868852 3.78779 0.840088 3.82257 0.840088H21.1498C21.1846 0.840088 21.2126 0.868852 21.2126 0.904541C21.2126 0.94023 21.1846 0.968994 21.1498 0.968994Z" fill="#676966"/>
<path d="M20.5806 1.78821H4.36358C4.32881 1.78821 4.30078 1.75944 4.30078 1.72375C4.30078 1.68807 4.32881 1.6593 4.36358 1.6593H20.5806C20.6154 1.6593 20.6434 1.68807 20.6434 1.72375C20.6434 1.75944 20.6154 1.78821 20.5806 1.78821Z" fill="#676966"/>
<path d="M20.0125 2.60693H4.90557C4.8708 2.60693 4.84277 2.57817 4.84277 2.54248C4.84277 2.50679 4.8708 2.47803 4.90557 2.47803H20.0125C20.0472 2.47803 20.0753 2.50679 20.0753 2.54248C20.0747 2.57817 20.0467 2.60693 20.0125 2.60693Z" fill="#676966"/>
<path d="M19.4438 3.42615H5.44757C5.41279 3.42615 5.38477 3.39738 5.38477 3.36169C5.38477 3.32601 5.41279 3.29724 5.44757 3.29724H19.4443C19.4791 3.29724 19.5071 3.32601 19.5071 3.36169C19.5066 3.39738 19.4785 3.42615 19.4438 3.42615Z" fill="#676966"/>
<path d="M18.8751 4.24548H5.98858C5.95381 4.24548 5.92578 4.21672 5.92578 4.18103C5.92578 4.14534 5.95381 4.11658 5.98858 4.11658H18.8746C18.9094 4.11658 18.9374 4.14534 18.9374 4.18103C18.9374 4.21672 18.9094 4.24548 18.8751 4.24548Z" fill="#676966"/>
<path d="M18.3064 5.06421H6.53057C6.4958 5.06421 6.46777 5.03544 6.46777 4.99976C6.46777 4.96407 6.4958 4.9353 6.53057 4.9353H18.3064C18.3412 4.9353 18.3692 4.96407 18.3692 4.99976C18.3692 5.03544 18.3412 5.06421 18.3064 5.06421Z" fill="#676966"/>
<path d="M3.09643 17.893C3.06218 17.893 3.03467 17.8642 3.03467 17.8285V0.428833C3.03467 0.393144 3.06218 0.36438 3.09643 0.36438C3.13069 0.36438 3.15819 0.393144 3.15819 0.428833V17.8285C3.15767 17.8642 3.13017 17.893 3.09643 17.893Z" fill="#676966"/>
<path d="M3.62329 17.4215C3.58903 17.4215 3.56152 17.3927 3.56152 17.3571V1.21448C3.56152 1.17879 3.58903 1.15002 3.62329 1.15002C3.65754 1.15002 3.68505 1.17879 3.68505 1.21448V17.3576C3.68505 17.3927 3.65754 17.4215 3.62329 17.4215Z" fill="#676966"/>
<path d="M4.15014 16.9502C4.11589 16.9502 4.08838 16.9214 4.08838 16.8857V2.00024C4.08838 1.96456 4.11589 1.93579 4.15014 1.93579C4.1844 1.93579 4.2119 1.96456 4.2119 2.00024V16.8857C4.2119 16.9214 4.1844 16.9502 4.15014 16.9502Z" fill="#676966"/>
<path d="M4.67749 16.4787C4.64323 16.4787 4.61572 16.45 4.61572 16.4143V2.78589C4.61572 2.7502 4.64323 2.72144 4.67749 2.72144C4.71174 2.72144 4.73925 2.7502 4.73925 2.78589V16.4143C4.73873 16.45 4.71122 16.4787 4.67749 16.4787Z" fill="#676966"/>
<path d="M5.20434 16.0073C5.17009 16.0073 5.14258 15.9785 5.14258 15.9428V3.57153C5.14258 3.53584 5.17009 3.50708 5.20434 3.50708C5.2386 3.50708 5.2661 3.53584 5.2661 3.57153V15.9428C5.2661 15.9785 5.2386 16.0073 5.20434 16.0073Z" fill="#676966"/>
<path d="M5.73071 15.5359C5.69645 15.5359 5.66895 15.5072 5.66895 15.4715V4.3573C5.66895 4.32161 5.69645 4.29285 5.73071 4.29285C5.76496 4.29285 5.79247 4.32161 5.79247 4.3573V15.4715C5.79247 15.5072 5.76496 15.5359 5.73071 15.5359Z" fill="#676966"/>
<path d="M6.25805 15.0645C6.2238 15.0645 6.19629 15.0357 6.19629 15V5.14294C6.19629 5.10726 6.2238 5.07849 6.25805 5.07849C6.29231 5.07849 6.31981 5.10726 6.31981 5.14294V15C6.3193 15.0357 6.29179 15.0645 6.25805 15.0645Z" fill="#676966"/>
<path d="M21.9212 17.893C21.8869 17.893 21.8589 17.8642 21.8589 17.8285V0.428833C21.8589 0.393144 21.8869 0.36438 21.9212 0.36438C21.9554 0.36438 21.9835 0.393144 21.9835 0.428833V17.8285C21.9835 17.8642 21.9554 17.893 21.9212 17.893Z" fill="#676966"/>
<path d="M21.3924 17.4215C21.3581 17.4215 21.3301 17.3927 21.3301 17.3571V1.21448C21.3301 1.17879 21.3581 1.15002 21.3924 1.15002C21.4266 1.15002 21.4546 1.17879 21.4546 1.21448V17.3576C21.4541 17.3927 21.4266 17.4215 21.3924 17.4215Z" fill="#676966"/>
<path d="M20.8631 16.9502C20.8288 16.9502 20.8008 16.9214 20.8008 16.8857V2.00024C20.8008 1.96456 20.8288 1.93579 20.8631 1.93579C20.8973 1.93579 20.9253 1.96456 20.9253 2.00024V16.8857C20.9253 16.9214 20.8973 16.9502 20.8631 16.9502Z" fill="#676966"/>
<path d="M20.3343 16.4787C20.3 16.4787 20.272 16.45 20.272 16.4143V2.78589C20.272 2.7502 20.3 2.72144 20.3343 2.72144C20.3685 2.72144 20.3965 2.7502 20.3965 2.78589V16.4143C20.396 16.45 20.3685 16.4787 20.3343 16.4787Z" fill="#676966"/>
<path d="M19.8045 16.0073C19.7702 16.0073 19.7422 15.9785 19.7422 15.9428V3.57153C19.7422 3.53584 19.7702 3.50708 19.8045 3.50708C19.8387 3.50708 19.8668 3.53584 19.8668 3.57153V15.9428C19.8668 15.9785 19.8387 16.0073 19.8045 16.0073Z" fill="#676966"/>
<path d="M19.2757 15.5359C19.2414 15.5359 19.2134 15.5072 19.2134 15.4715V4.3573C19.2134 4.32161 19.2414 4.29285 19.2757 4.29285C19.3099 4.29285 19.3379 4.32161 19.3379 4.3573V15.4715C19.3374 15.5072 19.3099 15.5359 19.2757 15.5359Z" fill="#676966"/>
<path d="M18.7464 15.0645C18.7121 15.0645 18.6841 15.0357 18.6841 15V5.14294C18.6841 5.10726 18.7121 5.07849 18.7464 5.07849C18.7806 5.07849 18.8086 5.10726 18.8086 5.14294V15C18.8086 15.0357 18.7806 15.0645 18.7464 15.0645Z" fill="#676966"/>
<path d="M4.21137 0H3V23.9574H4.21137V0Z" fill="#B3B4B3"/>
<path d="M22.0005 0H20.7886V23.9574H22.0005V0Z" fill="#B3B4B3"/>
<path d="M22 0H3V1.21502H22V0Z" fill="#B3B4B3"/>
<path d="M22 22.7578H3V23.9941H22V22.7578Z" fill="#B3B4B3"/>
<path d="M8.80444 0.900269H7.84375V23.143H8.80444V0.900269Z" fill="#B3B4B3"/>
<path d="M17.1565 0.900269H16.1958V23.143H17.1565V0.900269Z" fill="#B3B4B3"/>
<path d="M11.4312 9.83259C11.385 9.83259 11.3477 9.79423 11.3477 9.74683V6.3404C11.3477 6.29299 11.385 6.25464 11.4312 6.25464C11.4774 6.25464 11.5148 6.29299 11.5148 6.3404V9.74683C11.5148 9.79423 11.4774 9.83259 11.4312 9.83259Z" fill="#676966"/>
<path d="M11.166 9.66748L11.4312 10.1389L11.6964 9.66748H11.166Z" fill="#676966"/>
<path d="M12.4283 9.83259C12.3821 9.83259 12.3447 9.79423 12.3447 9.74683V6.3404C12.3447 6.29299 12.3821 6.25464 12.4283 6.25464C12.4745 6.25464 12.5118 6.29299 12.5118 6.3404V9.74683C12.5118 9.79423 12.4745 9.83259 12.4283 9.83259Z" fill="#676966"/>
<path d="M12.1631 9.66748L12.4283 10.1389L12.6935 9.66748H12.1631Z" fill="#676966"/>
<path d="M13.4258 9.83259C13.3797 9.83259 13.3423 9.79423 13.3423 9.74683V6.3404C13.3423 6.29299 13.3797 6.25464 13.4258 6.25464C13.472 6.25464 13.5094 6.29299 13.5094 6.3404V9.74683C13.5094 9.79423 13.472 9.83259 13.4258 9.83259Z" fill="#676966"/>
<path d="M13.1606 9.66748L13.4259 10.1389L13.6911 9.66748H13.1606Z" fill="#676966"/>
<path d="M10.9013 11.0145H8.4375V12.0644H10.9013V11.0145Z" fill="#B3B4B3"/>
</g>
<defs>
<clipPath id="clip0_563_4533">
<rect width="19" height="24" fill="white" transform="translate(3)"/>
</clipPath>
</defs>
</svg>
