<svg width="24" height="24" viewBox="0 0 24 24" fill="none" xmlns="http://www.w3.org/2000/svg">
<path d="M12.8 10.9996V4.99961H14.8V7.59961L19.8 2.59961L21.2 3.99961L16.2 8.99961H18.8V10.9996H12.8ZM19.95 20.9996C17.8 20.9996 15.7043 20.5203 13.663 19.5616C11.621 18.6036 9.81267 17.3369 8.238 15.7616C6.66267 14.1869 5.396 12.3786 4.438 10.3366C3.47933 8.29528 3 6.19961 3 4.04961C3 3.74961 3.1 3.49961 3.3 3.29961C3.5 3.09961 3.75 2.99961 4.05 2.99961H8.1C8.33333 2.99961 8.54167 3.07461 8.725 3.22461C8.90833 3.37461 9.01667 3.56628 9.05 3.79961L9.7 7.29961C9.73333 7.53294 9.72933 7.74528 9.688 7.93661C9.646 8.12861 9.55 8.29961 9.4 8.44961L7 10.8996C7.7 12.0996 8.575 13.2246 9.625 14.2746C10.675 15.3246 11.8333 16.2329 13.1 16.9996L15.45 14.6496C15.6 14.4996 15.796 14.3869 16.038 14.3116C16.2793 14.2369 16.5167 14.2163 16.75 14.2496L20.2 14.9496C20.4333 14.9996 20.625 15.1119 20.775 15.2866C20.925 15.4619 21 15.6663 21 15.8996V19.9496C21 20.2496 20.9 20.4996 20.7 20.6996C20.5 20.8996 20.25 20.9996 19.95 20.9996Z" fill="#676966"/>
</svg>
