<svg width="48" height="48" viewBox="0 0 48 48" fill="none" xmlns="http://www.w3.org/2000/svg">
<path fill-rule="evenodd" clip-rule="evenodd" d="M24 48C37.2548 48 48 37.2548 48 24C48 10.7452 37.2548 0 24 0C10.7452 0 0 10.7452 0 24C0 37.2548 10.7452 48 24 48ZM10.7215 22.7368L31.9975 14.5324C32.9683 14.0932 33.9067 14.7664 33.5359 16.2533L29.9131 33.3269C29.6599 34.5412 28.9291 34.8293 27.9115 34.2689L22.3927 30.1924L19.7395 32.7724C19.7296 32.782 19.7198 32.7915 19.71 32.801C19.414 33.0872 19.1687 33.3245 18.6343 33.3245L19.0111 27.694L19.0087 27.6929H19.0111L29.2507 18.4516C29.6995 18.0532 29.1535 17.8576 28.5559 18.2212L15.9175 26.1952L10.4551 24.4912C9.27793 24.13 9.26953 23.32 10.7215 22.7368Z" fill="white"/>
</svg>
