<svg width="48" height="48" viewBox="0 0 48 48" fill="none" xmlns="http://www.w3.org/2000/svg">
<path fill-rule="evenodd" clip-rule="evenodd" d="M24 48C37.2548 48 48 37.2548 48 24C48 10.7452 37.2548 0 24 0C10.7452 0 0 10.7452 0 24C0 37.2548 10.7452 48 24 48ZM13.7086 29.7403L12.0051 36L18.2622 34.2927C20.1858 35.4143 22.3733 36.0036 24.6 36C31.559 36 37.2 30.359 37.2 23.4C37.2 16.441 31.559 10.8 24.6 10.8C17.641 10.8 12 16.441 12 23.4C11.9964 25.6277 12.5861 27.8161 13.7086 29.7403ZM19.5852 17.6141C19.731 17.541 19.89 17.4982 20.0527 17.4881V17.4868C20.2217 17.4751 20.3912 17.4734 20.5605 17.4818C20.6285 17.4868 20.6965 17.4944 20.7646 17.5019C20.9649 17.5259 21.1854 17.6468 21.2598 17.8157C21.6352 18.6674 22.0006 19.5255 22.3534 20.3873C22.4315 20.5776 22.3849 20.8233 22.2362 21.0627C22.134 21.225 22.0234 21.3819 21.9049 21.5327C21.7625 21.7141 21.4563 22.0493 21.4563 22.0493C21.4563 22.0493 21.3316 22.198 21.3795 22.3832C21.4114 22.4743 21.4546 22.561 21.508 22.6415L21.5823 22.7612C21.9398 23.3471 22.3718 23.8841 22.8675 24.3589C22.9082 24.3982 22.9487 24.438 22.9892 24.4777C23.099 24.5856 23.2089 24.6935 23.3249 24.7948C23.9149 25.315 24.5823 25.7401 25.3031 26.0548L25.3094 26.0573C25.3404 26.0708 25.367 26.0825 25.3929 26.0939C25.4564 26.1219 25.5159 26.1481 25.6269 26.1947C25.705 26.2281 25.7855 26.2559 25.8676 26.2778C25.9524 26.2997 26.0418 26.2957 26.1244 26.2666C26.2069 26.2374 26.279 26.1843 26.3312 26.114C27.2422 25.0103 27.3266 24.9384 27.3329 24.9384V24.941C27.3963 24.8819 27.4716 24.837 27.5538 24.8094C27.6359 24.7818 27.723 24.7721 27.8092 24.781C27.8861 24.7843 27.9617 24.8019 28.0322 24.8326C28.7013 25.1375 29.7975 25.6151 29.7975 25.6151L30.5308 25.9439C30.653 26.0032 30.7652 26.143 30.7702 26.2778C30.7704 26.2826 30.7707 26.2875 30.7709 26.2925C30.7749 26.3779 30.7811 26.5123 30.7526 26.7478C30.7123 27.0741 30.614 27.466 30.5157 27.6714C30.4464 27.8163 30.3557 27.9436 30.2511 28.0519C30.11 28.1993 30.0054 28.2888 29.8353 28.4148C29.732 28.4929 29.6778 28.5282 29.6778 28.5282C29.5213 28.6279 29.3602 28.7204 29.1952 28.8054C28.8709 28.9781 28.5126 29.0775 28.1456 29.0964C28.1049 29.0984 28.0642 29.1006 28.0235 29.1027C27.8302 29.113 27.6376 29.1232 27.4451 29.1128L26.7281 29.0032C24.9367 28.532 23.28 27.6493 21.8897 26.4252C21.6522 26.2152 21.4289 25.9918 21.2041 25.7671C21.1606 25.7236 21.117 25.68 21.0733 25.6365C19.9531 24.5214 19.1052 23.3181 18.5898 22.1816C18.3378 21.6196 18.1765 21.0186 18.174 20.4012C18.1697 19.6369 18.4202 18.893 18.8859 18.2869C18.8999 18.2688 18.9137 18.2505 18.9276 18.2321C19.0054 18.1293 19.0865 18.0221 19.2148 17.9014C19.3238 17.7882 19.4485 17.6915 19.5852 17.6141Z" fill="white"/>
</svg>
